<svg width="24" height="24" viewBox="0 0 24 24" fill="none" xmlns="http://www.w3.org/2000/svg">
<g clip-path="url(#clip0_307_9269)">
<path d="M2.88041 5.7595C2.93084 5.75951 2.98078 5.74959 3.02738 5.7303C3.07397 5.711 3.11631 5.68272 3.15197 5.64706C3.18763 5.6114 3.21591 5.56906 3.23521 5.52247C3.2545 5.47587 3.26443 5.42593 3.26441 5.3755V4.99189C3.26441 4.89007 3.22396 4.79242 3.15197 4.72042C3.07997 4.64842 2.98232 4.60797 2.8805 4.60797C2.77868 4.60797 2.68103 4.64842 2.60903 4.72042C2.53703 4.79242 2.49658 4.89007 2.49658 4.99189V5.3755C2.49661 5.47731 2.53705 5.57494 2.60902 5.64694C2.681 5.71894 2.77861 5.75943 2.88041 5.7595Z" fill="black"/>
<path d="M2.88041 8.06388C2.93084 8.0639 2.98078 8.05397 3.02738 8.03468C3.07397 8.01539 3.11631 7.9871 3.15197 7.95144C3.18763 7.91578 3.21591 7.87344 3.23521 7.82685C3.2545 7.78026 3.26443 7.73032 3.26441 7.67988V7.29627C3.26441 7.19445 3.22396 7.0968 3.15197 7.0248C3.07997 6.9528 2.98232 6.91235 2.8805 6.91235C2.77868 6.91235 2.68103 6.9528 2.60903 7.0248C2.53703 7.0968 2.49658 7.19445 2.49658 7.29627V7.67988C2.49661 7.78169 2.53705 7.87932 2.60902 7.95132C2.681 8.02333 2.77861 8.06381 2.88041 8.06388Z" fill="black"/>
<path d="M4.22423 5.95203H3.84079C3.73894 5.95203 3.64127 5.99248 3.56926 6.0645C3.49724 6.13651 3.45679 6.23418 3.45679 6.33603C3.45679 6.43787 3.49724 6.53554 3.56926 6.60756C3.64127 6.67957 3.73894 6.72003 3.84079 6.72003H4.22423C4.32608 6.72003 4.42375 6.67957 4.49576 6.60756C4.56778 6.53554 4.60823 6.43787 4.60823 6.33603C4.60823 6.23418 4.56778 6.13651 4.49576 6.0645C4.42375 5.99248 4.32608 5.95203 4.22423 5.95203Z" fill="black"/>
<path d="M1.53634 6.72003H1.91996C2.0218 6.72003 2.11947 6.67957 2.19149 6.60756C2.2635 6.53554 2.30396 6.43787 2.30396 6.33603C2.30396 6.23418 2.2635 6.13651 2.19149 6.0645C2.11947 5.99248 2.0218 5.95203 1.91996 5.95203H1.53634C1.4345 5.95203 1.33683 5.99248 1.26481 6.0645C1.1928 6.13651 1.15234 6.23418 1.15234 6.33603C1.15234 6.43787 1.1928 6.53554 1.26481 6.60756C1.33683 6.67957 1.4345 6.72003 1.53634 6.72003Z" fill="black"/>
<path d="M2.88041 18.432C2.77861 18.4321 2.681 18.4726 2.60902 18.5446C2.53705 18.6166 2.49661 18.7142 2.49658 18.816V19.1996C2.49658 19.25 2.50651 19.3 2.52581 19.3465C2.5451 19.3931 2.57338 19.4354 2.60903 19.4711C2.64468 19.5067 2.687 19.535 2.73358 19.5543C2.78016 19.5736 2.83008 19.5835 2.8805 19.5835C2.93091 19.5835 2.98084 19.5736 3.02742 19.5543C3.07399 19.535 3.11632 19.5067 3.15197 19.4711C3.18762 19.4354 3.2159 19.3931 3.23519 19.3465C3.25448 19.3 3.26441 19.25 3.26441 19.1996V18.816C3.26443 18.7656 3.2545 18.7156 3.23521 18.669C3.21591 18.6224 3.18763 18.5801 3.15197 18.5445C3.11631 18.5088 3.07397 18.4805 3.02738 18.4612C2.98078 18.4419 2.93084 18.432 2.88041 18.432Z" fill="black"/>
<path d="M2.88041 20.7364C2.77861 20.7365 2.681 20.7769 2.60902 20.849C2.53705 20.921 2.49661 21.0186 2.49658 21.1204V21.504C2.49658 21.5544 2.50651 21.6043 2.52581 21.6509C2.5451 21.6975 2.57338 21.7398 2.60903 21.7755C2.64468 21.8111 2.687 21.8394 2.73358 21.8587C2.78016 21.878 2.83008 21.8879 2.8805 21.8879C2.93091 21.8879 2.98084 21.878 3.02742 21.8587C3.07399 21.8394 3.11632 21.8111 3.15197 21.7755C3.18762 21.7398 3.2159 21.6975 3.23519 21.6509C3.25448 21.6043 3.26441 21.5544 3.26441 21.504V21.1204C3.26443 21.07 3.2545 21.02 3.23521 20.9734C3.21591 20.9268 3.18763 20.8845 3.15197 20.8488C3.11631 20.8132 3.07397 20.7849 3.02738 20.7656C2.98078 20.7463 2.93084 20.7364 2.88041 20.7364Z" fill="black"/>
<path d="M4.22423 19.776H3.84079C3.73894 19.776 3.64127 19.8165 3.56926 19.8885C3.49724 19.9605 3.45679 20.0582 3.45679 20.16C3.45679 20.2618 3.49724 20.3595 3.56926 20.4315C3.64127 20.5035 3.73894 20.544 3.84079 20.544H4.22423C4.32608 20.544 4.42375 20.5035 4.49576 20.4315C4.56778 20.3595 4.60823 20.2618 4.60823 20.16C4.60823 20.0582 4.56778 19.9605 4.49576 19.8885C4.42375 19.8165 4.32608 19.776 4.22423 19.776Z" fill="black"/>
<path d="M1.91996 19.776H1.53634C1.4345 19.776 1.33683 19.8165 1.26481 19.8885C1.1928 19.9605 1.15234 20.0582 1.15234 20.16C1.15234 20.2618 1.1928 20.3595 1.26481 20.4315C1.33683 20.5035 1.4345 20.544 1.53634 20.544H1.91996C2.0218 20.544 2.11947 20.5035 2.19149 20.4315C2.2635 20.3595 2.30396 20.2618 2.30396 20.16C2.30396 20.0582 2.2635 19.9605 2.19149 19.8885C2.11947 19.8165 2.0218 19.776 1.91996 19.776Z" fill="black"/>
<path d="M21.6937 5.75959C21.7442 5.75962 21.7941 5.74971 21.8408 5.73043C21.8874 5.71114 21.9297 5.68286 21.9654 5.6472C22.0011 5.61154 22.0294 5.56919 22.0487 5.52259C22.068 5.47599 22.0779 5.42603 22.0779 5.37559V4.99197C22.0779 4.89013 22.0375 4.79246 21.9655 4.72044C21.8935 4.64843 21.7958 4.60797 21.6939 4.60797C21.5921 4.60797 21.4944 4.64843 21.4224 4.72044C21.3504 4.79246 21.3099 4.89013 21.3099 4.99197V5.37559C21.31 5.47739 21.3504 5.57502 21.4224 5.64702C21.4943 5.71903 21.5919 5.75951 21.6937 5.75959Z" fill="black"/>
<path d="M21.6937 8.06397C21.7442 8.064 21.7941 8.05409 21.8408 8.03481C21.8874 8.01552 21.9297 7.98724 21.9654 7.95158C22.0011 7.91592 22.0294 7.87358 22.0487 7.82697C22.068 7.78037 22.0779 7.73042 22.0779 7.67997V7.29635C22.0779 7.19451 22.0375 7.09684 21.9655 7.02482C21.8935 6.95281 21.7958 6.91235 21.6939 6.91235C21.5921 6.91235 21.4944 6.95281 21.4224 7.02482C21.3504 7.09684 21.3099 7.19451 21.3099 7.29635V7.67997C21.31 7.78177 21.3504 7.8794 21.4224 7.95141C21.4943 8.02341 21.5919 8.0639 21.6937 8.06397Z" fill="black"/>
<path d="M22.6543 6.72003H23.0377C23.1396 6.72003 23.2372 6.67957 23.3092 6.60756C23.3813 6.53554 23.4217 6.43787 23.4217 6.33603C23.4217 6.23418 23.3813 6.13651 23.3092 6.0645C23.2372 5.99248 23.1396 5.95203 23.0377 5.95203H22.6543C22.5524 5.95203 22.4547 5.99248 22.3827 6.0645C22.3107 6.13651 22.2703 6.23418 22.2703 6.33603C22.2703 6.43787 22.3107 6.53554 22.3827 6.60756C22.4547 6.67957 22.5524 6.72003 22.6543 6.72003Z" fill="black"/>
<path d="M20.3503 6.72003H20.7339C20.8358 6.72003 20.9335 6.67957 21.0055 6.60756C21.0775 6.53554 21.1179 6.43787 21.1179 6.33603C21.1179 6.23418 21.0775 6.13651 21.0055 6.0645C20.9335 5.99248 20.8358 5.95203 20.7339 5.95203H20.3503C20.2485 5.95203 20.1508 5.99248 20.0788 6.0645C20.0068 6.13651 19.9663 6.23418 19.9663 6.33603C19.9663 6.43787 20.0068 6.53554 20.0788 6.60756C20.1508 6.67957 20.2485 6.72003 20.3503 6.72003Z" fill="black"/>
<path d="M21.6937 18.432C21.5919 18.4321 21.4943 18.4726 21.4224 18.5446C21.3504 18.6166 21.31 18.7142 21.3099 18.816V19.1996C21.3099 19.3015 21.3504 19.3991 21.4224 19.4712C21.4944 19.5432 21.5921 19.5836 21.6939 19.5836C21.7958 19.5836 21.8935 19.5432 21.9655 19.4712C22.0375 19.3991 22.0779 19.3015 22.0779 19.1996V18.816C22.0779 18.7656 22.068 18.7156 22.0487 18.669C22.0294 18.6224 22.0011 18.5801 21.9654 18.5444C21.9297 18.5087 21.8874 18.4805 21.8408 18.4612C21.7941 18.4419 21.7442 18.432 21.6937 18.432Z" fill="black"/>
<path d="M21.6937 20.7364C21.5919 20.7365 21.4943 20.777 21.4224 20.849C21.3504 20.921 21.31 21.0186 21.3099 21.1204V21.504C21.3099 21.6058 21.3504 21.7035 21.4224 21.7755C21.4944 21.8475 21.5921 21.888 21.6939 21.888C21.7958 21.888 21.8935 21.8475 21.9655 21.7755C22.0375 21.7035 22.0779 21.6058 22.0779 21.504V21.1204C22.0779 21.0699 22.068 21.02 22.0487 20.9734C22.0294 20.9268 22.0011 20.8844 21.9654 20.8488C21.9297 20.8131 21.8874 20.7848 21.8408 20.7656C21.7941 20.7463 21.7442 20.7364 21.6937 20.7364Z" fill="black"/>
<path d="M23.0377 19.776H22.6543C22.5524 19.776 22.4547 19.8165 22.3827 19.8885C22.3107 19.9605 22.2703 20.0582 22.2703 20.16C22.2703 20.2618 22.3107 20.3595 22.3827 20.4315C22.4547 20.5035 22.5524 20.544 22.6543 20.544H23.0377C23.1396 20.544 23.2372 20.5035 23.3092 20.4315C23.3813 20.3595 23.4217 20.2618 23.4217 20.16C23.4217 20.0582 23.3813 19.9605 23.3092 19.8885C23.2372 19.8165 23.1396 19.776 23.0377 19.776Z" fill="black"/>
<path d="M20.7339 19.776H20.3503C20.2485 19.776 20.1508 19.8165 20.0788 19.8885C20.0068 19.9605 19.9663 20.0582 19.9663 20.16C19.9663 20.2618 20.0068 20.3595 20.0788 20.4315C20.1508 20.5035 20.2485 20.544 20.3503 20.544H20.7339C20.8358 20.544 20.9335 20.5035 21.0055 20.4315C21.0775 20.3595 21.1179 20.2618 21.1179 20.16C21.1179 20.0582 21.0775 19.9605 21.0055 19.8885C20.9335 19.8165 20.8358 19.776 20.7339 19.776Z" fill="black"/>
<path d="M12.0953 11.3497H12.4793C12.5811 11.3497 12.6788 11.3093 12.7508 11.2373C12.8228 11.1652 12.8633 11.0676 12.8633 10.9657C12.8633 10.8639 12.8228 10.7662 12.7508 10.6942C12.6788 10.6222 12.5811 10.5817 12.4793 10.5817H12.0953C11.9935 10.5817 11.8958 10.6222 11.8238 10.6942C11.7518 10.7662 11.7113 10.8639 11.7113 10.9657C11.7113 11.0676 11.7518 11.1652 11.8238 11.2373C11.8958 11.3093 11.9935 11.3497 12.0953 11.3497Z" fill="black"/>
<path d="M12.0953 12.8871H12.4793C12.5811 12.8871 12.6788 12.8466 12.7508 12.7746C12.8228 12.7026 12.8633 12.6049 12.8633 12.5031C12.8633 12.4012 12.8228 12.3036 12.7508 12.2316C12.6788 12.1595 12.5811 12.1191 12.4793 12.1191H12.0953C11.9935 12.1191 11.8958 12.1595 11.8238 12.2316C11.7518 12.3036 11.7113 12.4012 11.7113 12.5031C11.7113 12.6049 11.7518 12.7026 11.8238 12.7746C11.8958 12.8466 11.9935 12.8871 12.0953 12.8871Z" fill="black"/>
<path d="M17.8562 15.1891C17.8057 15.189 17.7558 15.199 17.7092 15.2182C17.6626 15.2375 17.6202 15.2658 17.5846 15.3015C17.5489 15.3371 17.5206 15.3795 17.5013 15.4261C17.482 15.4727 17.4721 15.5226 17.4722 15.5731V16.3411H16.7032V12.1171C16.7004 11.9109 16.6159 11.7143 16.4683 11.5704C16.3207 11.4264 16.1221 11.3468 15.9159 11.3491H14.975V9.79198C15.0769 9.79198 15.1746 9.75153 15.2466 9.67952C15.3187 9.60751 15.3592 9.50984 15.3592 9.40798V8.63998C15.3588 8.33457 15.2373 8.04178 15.0214 7.82583C14.8054 7.60987 14.5126 7.48837 14.2072 7.48798H10.367C10.0616 7.48838 9.76888 7.60989 9.55296 7.82585C9.33704 8.04181 9.21558 8.33459 9.21522 8.63998V9.40798C9.21521 9.45841 9.22513 9.50835 9.24442 9.55494C9.26372 9.60154 9.292 9.64388 9.32766 9.67954C9.36332 9.7152 9.40566 9.74348 9.45226 9.76277C9.49885 9.78207 9.54879 9.79199 9.59922 9.79198V11.3491H8.65854C8.45234 11.3467 8.25363 11.4262 8.10602 11.5702C7.95841 11.7142 7.87396 11.9109 7.87122 12.1171V16.3411H7.10303V15.5731C7.10303 15.4713 7.06258 15.3736 6.99059 15.3016C6.91859 15.2296 6.82094 15.1892 6.71913 15.1892C6.61731 15.1892 6.51966 15.2296 6.44767 15.3016C6.37567 15.3736 6.33522 15.4713 6.33522 15.5731V16.7232L6.33484 16.7251C6.33483 16.8269 6.37527 16.9245 6.44724 16.9966C6.51922 17.0686 6.61685 17.109 6.71867 17.1091H17.8562C17.9579 17.109 18.0555 17.0685 18.1275 16.9965C18.1994 16.9245 18.2398 16.8269 18.2398 16.7251V15.5731C18.2398 15.4713 18.1994 15.3737 18.1275 15.3017C18.0555 15.2297 17.9579 15.1892 17.8562 15.1891ZM9.59922 16.3411H8.63884L8.63734 12.1245C8.64013 12.1218 8.64347 12.1197 8.64713 12.1185C8.65079 12.1172 8.65468 12.1167 8.65854 12.1171H9.59922V16.3411ZM12.671 16.3411H11.9032V14.8051H12.671V16.3411ZM14.2072 16.3411H13.4392V14.4211C13.4392 14.3192 13.3987 14.2216 13.3267 14.1496C13.2547 14.0776 13.1571 14.0371 13.0552 14.0371H11.5194C11.469 14.0371 11.419 14.047 11.3724 14.0663C11.3258 14.0856 11.2835 14.1138 11.2478 14.1495C11.2121 14.1852 11.1838 14.2275 11.1645 14.2741C11.1452 14.3207 11.1352 14.3706 11.1352 14.4211V16.3411H10.367V9.79198H14.2072V16.3411ZM14.5914 9.02398H9.98322V8.63998C9.98327 8.53818 10.0237 8.44056 10.0957 8.36856C10.1676 8.29656 10.2652 8.25607 10.367 8.25598H14.2072C14.309 8.25615 14.4066 8.29666 14.4786 8.36863C14.5506 8.4406 14.5912 8.53817 14.5914 8.63998V9.02398ZM15.9352 16.3411H14.975V12.1171H15.9159C15.9224 12.1177 15.9289 12.1187 15.9352 12.1202V16.3411Z" fill="black"/>
<path d="M22.6557 14.2081C22.6556 13.9803 22.5881 13.7576 22.4615 13.5682C22.3349 13.3788 22.155 13.2312 21.9446 13.144C21.7341 13.0569 21.5025 13.0341 21.2791 13.0785C21.0557 13.123 20.8504 13.2327 20.6894 13.3938C20.5283 13.5549 20.4186 13.7601 20.3742 13.9835C20.3297 14.207 20.3526 14.4385 20.4397 14.649C20.5269 14.8595 20.6745 15.0393 20.864 15.1659C21.0534 15.2925 21.2761 15.36 21.5039 15.36C21.8093 15.3597 22.1021 15.2383 22.318 15.0223C22.534 14.8064 22.6554 14.5135 22.6557 14.2081ZM21.1201 14.2081C21.1201 14.1322 21.1426 14.0579 21.1848 13.9948C21.2269 13.9317 21.2869 13.8825 21.3571 13.8534C21.4272 13.8244 21.5044 13.8168 21.5789 13.8316C21.6534 13.8464 21.7218 13.883 21.7754 13.9367C21.8291 13.9904 21.8657 14.0588 21.8805 14.1333C21.8953 14.2077 21.8877 14.2849 21.8586 14.3551C21.8295 14.4252 21.7803 14.4852 21.7172 14.5274C21.654 14.5695 21.5798 14.592 21.5039 14.592C21.4021 14.5918 21.3046 14.5513 21.2327 14.4793C21.1607 14.4074 21.1202 14.3099 21.1201 14.2081Z" fill="black"/>
<path d="M24.4667 11.227C23.6792 10.4444 22.6141 10.0051 21.5039 10.005C20.3936 10.0049 19.3285 10.4441 18.5409 11.2267C18.5053 11.2627 18.4772 11.3054 18.4582 11.3524C18.4392 11.3994 18.4297 11.4496 18.4302 11.5003C18.4307 11.5509 18.4412 11.601 18.4611 11.6475C18.4811 11.6941 18.51 11.7363 18.5463 11.7716C18.5826 11.8069 18.6256 11.8347 18.6726 11.8534C18.7197 11.8721 18.7701 11.8813 18.8207 11.8804C18.8714 11.8795 18.9213 11.8687 18.9678 11.8484C19.0142 11.8281 19.0561 11.7989 19.0912 11.7623C19.7342 11.1283 20.6009 10.7729 21.5039 10.773C22.4068 10.7731 23.2735 11.1286 23.9164 11.7627C23.988 11.8349 24.0851 11.876 24.1867 11.8774C24.2884 11.8787 24.3865 11.8402 24.4601 11.77C24.4962 11.7348 24.525 11.6928 24.5449 11.6465C24.5647 11.6001 24.5753 11.5503 24.5759 11.4999C24.5765 11.4495 24.5672 11.3994 24.5484 11.3526C24.5297 11.3058 24.5019 11.2631 24.4667 11.227Z" fill="black"/>
<path d="M21.5037 11.5716C21.1107 11.5621 20.7203 11.6384 20.3597 11.795C19.9991 11.9516 19.6769 12.1848 19.4155 12.4784C19.3834 12.5173 19.3593 12.5622 19.3445 12.6104C19.3297 12.6587 19.3246 12.7093 19.3294 12.7595C19.3342 12.8097 19.3488 12.8585 19.3725 12.9031C19.3962 12.9476 19.4284 12.9871 19.4673 13.0192C19.5062 13.0513 19.551 13.0754 19.5992 13.0902C19.6475 13.105 19.6981 13.1101 19.7484 13.1053C19.7986 13.1005 19.8473 13.0859 19.8919 13.0622C19.9364 13.0385 19.9759 13.0063 20.008 12.9674C20.2031 12.7686 20.4359 12.6106 20.6928 12.5028C20.9496 12.395 21.2254 12.3395 21.504 12.3396C21.7826 12.3396 22.0583 12.3952 22.3152 12.5031C22.572 12.611 22.8047 12.7691 22.9998 12.968C23.0319 13.0069 23.0713 13.0391 23.1158 13.0628C23.1604 13.0864 23.2091 13.1011 23.2594 13.1059C23.3096 13.1107 23.3602 13.1056 23.4084 13.0908C23.4567 13.0761 23.5015 13.0519 23.5404 13.0198C23.5793 12.9878 23.6115 12.9483 23.6352 12.9038C23.6588 12.8592 23.6735 12.8105 23.6783 12.7603C23.6831 12.71 23.678 12.6594 23.6632 12.6112C23.6485 12.5629 23.6244 12.5181 23.5923 12.4792C23.3309 12.1854 23.0087 11.952 22.648 11.7952C22.2873 11.6385 21.8968 11.5622 21.5037 11.5716Z" fill="black"/>
<path d="M3.97131 14.6644C4.38757 13.9267 4.20286 13.2101 4.02793 12.7357C3.62968 11.7617 3.15879 10.8191 2.61925 9.91576C2.57029 9.82311 2.49699 9.74556 2.40723 9.69148C2.31748 9.63739 2.21467 9.60882 2.10987 9.60883C2.00508 9.60884 1.90227 9.63743 1.81253 9.69153C1.72278 9.74564 1.64949 9.8232 1.60055 9.91586C1.05224 10.8318 0.575694 11.7888 0.175184 12.7783C-0.100432 13.5439 -0.0505692 14.2196 0.322928 14.7871C0.525581 15.0916 0.802689 15.3392 1.12794 15.5064C1.4532 15.6737 1.8158 15.755 2.18133 15.7427C2.54686 15.7304 2.90318 15.6249 3.21646 15.4362C3.52974 15.2474 3.78958 14.9818 3.97131 14.6644ZM0.964189 14.3646C0.724554 14.0003 0.703745 13.5789 0.89818 13.0383C1.24128 12.1876 1.64624 11.3631 2.10981 10.5715C2.56589 11.352 2.96615 12.1637 3.30757 13.0007C3.50445 13.5351 3.50293 13.9317 3.30212 14.2868C3.18513 14.4895 3.01839 14.6592 2.81764 14.7796C2.61689 14.9001 2.38875 14.9674 2.15477 14.9752C1.92079 14.9829 1.68868 14.931 1.48036 14.8241C1.27205 14.7173 1.0944 14.5591 0.964189 14.3646Z" fill="black"/>
<path d="M16.8619 20.2667H16.6549C16.6147 19.9722 16.4695 19.7021 16.2459 19.5061C16.0224 19.3101 15.7357 19.2014 15.4384 19.2H15.0173C14.8029 19.2009 14.5977 19.2867 14.4466 19.4387C14.2956 19.5907 14.2109 19.7965 14.2114 20.0108V21.12H10.3644V20.0108C10.3648 19.7965 10.2802 19.5909 10.1291 19.4389C9.97813 19.2869 9.77302 19.201 9.55878 19.2H9.13689C8.83967 19.2013 8.55294 19.31 8.3295 19.506C8.10607 19.702 7.96098 19.9722 7.92096 20.2667H7.71414C7.49984 20.2676 7.29464 20.3534 7.14353 20.5053C6.99243 20.6573 6.90775 20.863 6.90808 21.0773V21.9308C6.90775 22.1451 6.99243 22.3507 7.14353 22.5027C7.29464 22.6546 7.49984 22.7405 7.71414 22.7413H7.92096C7.96098 23.0358 8.10607 23.306 8.3295 23.502C8.55294 23.698 8.83967 23.8067 9.13689 23.808H9.55878C9.77302 23.807 9.97813 23.7211 10.1291 23.5691C10.2802 23.4171 10.3648 23.2115 10.3644 22.9973V21.888H14.2114V22.9973C14.2109 23.2116 14.2956 23.4173 14.4466 23.5693C14.5977 23.7213 14.8029 23.8072 15.0173 23.808H15.4384C15.7357 23.8066 16.0224 23.698 16.2459 23.502C16.4695 23.306 16.6147 23.0359 16.6549 22.7413H16.8619C17.0761 22.7404 17.2812 22.6545 17.4322 22.5026C17.5832 22.3506 17.6678 22.145 17.6674 21.9308V21.0773C17.6678 20.863 17.5832 20.6574 17.4322 20.5055C17.2812 20.3535 17.0761 20.2677 16.8619 20.2667ZM9.59608 22.9973C9.59675 23.0079 9.5932 23.0183 9.58622 23.0263C9.57923 23.0343 9.56937 23.0392 9.55878 23.04H9.13689C9.01377 23.0385 8.89625 22.9883 8.81007 22.9003C8.7239 22.8124 8.67611 22.6938 8.67715 22.5707V22.3573C8.67712 22.2555 8.63668 22.1579 8.56471 22.0859C8.49274 22.0139 8.39513 21.9734 8.29332 21.9733H7.71414C7.70347 21.9727 7.69348 21.9678 7.68636 21.9599C7.67923 21.9519 7.67554 21.9414 7.67608 21.9308V21.0773C7.67554 21.0666 7.67923 21.0561 7.68636 21.0482C7.69348 21.0402 7.70347 21.0354 7.71414 21.0347H8.29332C8.39513 21.0346 8.49274 20.9941 8.56471 20.9221C8.63668 20.8501 8.67712 20.7525 8.67715 20.6507V20.4373C8.67611 20.3142 8.7239 20.1957 8.81007 20.1077C8.89625 20.0197 9.01377 19.9695 9.13689 19.968H9.55878C9.56937 19.9688 9.57923 19.9737 9.58622 19.9817C9.5932 19.9897 9.59675 20.0002 9.59608 20.0108V22.9973ZM16.8992 21.9308C16.8998 21.9413 16.8963 21.9517 16.8893 21.9597C16.8823 21.9677 16.8725 21.9726 16.8619 21.9733H16.2825C16.2321 21.9733 16.1821 21.9832 16.1356 22.0025C16.089 22.0218 16.0466 22.0501 16.011 22.0858C15.9753 22.1214 15.947 22.1638 15.9277 22.2104C15.9084 22.2569 15.8985 22.3069 15.8985 22.3573V22.5707C15.8996 22.6939 15.8518 22.8125 15.7655 22.9005C15.6792 22.9885 15.5616 23.0387 15.4384 23.04H15.0173C15.0066 23.0393 14.9966 23.0344 14.9895 23.0264C14.9824 23.0184 14.9788 23.0079 14.9794 22.9973V20.0108C14.9788 20.0001 14.9824 19.9896 14.9895 19.9816C14.9966 19.9736 15.0066 19.9687 15.0173 19.968H15.4384C15.5616 19.9694 15.6792 20.0195 15.7655 20.1075C15.8518 20.1955 15.8996 20.3141 15.8985 20.4373V20.6507C15.8985 20.7011 15.9084 20.7511 15.9277 20.7977C15.947 20.8443 15.9753 20.8866 16.011 20.9223C16.0466 20.9579 16.089 20.9862 16.1356 21.0055C16.1821 21.0248 16.2321 21.0347 16.2825 21.0347H16.8619C16.8725 21.0355 16.8823 21.0403 16.8893 21.0483C16.8963 21.0563 16.8998 21.0667 16.8992 21.0773V21.9308Z" fill="black"/>
<path d="M7.85155 5.76001H16.7225C17.1272 5.75695 17.5142 5.59351 17.7985 5.30554C18.0828 5.01758 18.2413 4.62859 18.2392 4.22391V1.9201C18.2406 1.61638 18.1215 1.32451 17.9079 1.10853C17.6944 0.892543 17.4039 0.77008 17.1002 0.768005H7.47429C7.17057 0.770081 6.88008 0.892544 6.66654 1.10853C6.453 1.32451 6.33385 1.61638 6.33523 1.9201V4.22391C6.33308 4.62854 6.49152 5.0175 6.77578 5.30547C7.06004 5.59344 7.44692 5.75691 7.85155 5.76001ZM15.743 4.99201H8.83123V4.22401H15.743V4.99201ZM7.10303 1.9201C7.1015 1.81999 7.13971 1.72334 7.2093 1.65135C7.27889 1.57935 7.37418 1.53788 7.47429 1.53601H17.1002C17.2003 1.53788 17.2956 1.57935 17.3652 1.65135C17.4347 1.72334 17.473 1.81999 17.4714 1.9201V4.22391C17.4737 4.425 17.3962 4.61881 17.2558 4.7628C17.1154 4.9068 16.9236 4.98923 16.7225 4.99201H16.511V3.84001C16.5111 3.78958 16.5012 3.73964 16.4819 3.69304C16.4627 3.64644 16.4344 3.6041 16.3987 3.56843C16.3631 3.53277 16.3208 3.50448 16.2742 3.48519C16.2276 3.4659 16.1777 3.45598 16.1272 3.45601H8.44742C8.34558 3.45601 8.24791 3.49647 8.17589 3.56848C8.10388 3.64049 8.06342 3.73816 8.06342 3.84001V4.99201H7.85155C7.65054 4.98909 7.45888 4.9066 7.31858 4.76263C7.17827 4.61865 7.10076 4.42493 7.10303 4.22391V1.9201Z" fill="black"/>
<path d="M15.9353 2.68798H16.3191C16.4209 2.68798 16.5186 2.64753 16.5906 2.57551C16.6626 2.5035 16.7031 2.40583 16.7031 2.30398C16.7031 2.20214 16.6626 2.10447 16.5906 2.03245C16.5186 1.96044 16.4209 1.91998 16.3191 1.91998H15.9353C15.8334 1.91998 15.7358 1.96044 15.6637 2.03245C15.5917 2.10447 15.5513 2.20214 15.5513 2.30398C15.5513 2.40583 15.5917 2.5035 15.6637 2.57551C15.7358 2.64753 15.8334 2.68798 15.9353 2.68798Z" fill="black"/>
<path d="M8.44743 2.68789C8.65948 2.68789 8.83138 2.51599 8.83138 2.30393C8.83138 2.09188 8.65948 1.91998 8.44743 1.91998C8.23538 1.91998 8.06348 2.09188 8.06348 2.30393C8.06348 2.51599 8.23538 2.68789 8.44743 2.68789Z" fill="black"/>
</g>
<defs>
<clipPath id="clip0_307_9269">
<rect width="24" height="24" fill="white"/>
</clipPath>
</defs>
</svg>
