<svg width="24" height="24" viewBox="0 0 24 24" fill="none" xmlns="http://www.w3.org/2000/svg">
<g clip-path="url(#clip0_307_9248)">
<path d="M23.5287 12.9053C23.2346 12.6922 22.855 12.6362 22.5119 12.7554C22.443 12.7789 22.3731 12.8047 22.3042 12.8322C21.979 12.9574 21.6173 12.9478 21.2991 12.8057C20.8657 12.6222 20.3978 12.5348 19.9273 12.5495C19.488 12.5462 19.0529 12.6366 18.6512 12.8145C18.3371 12.9599 17.9784 12.9761 17.6525 12.8595C17.4903 12.8009 17.3254 12.7503 17.1582 12.7082C17.0002 12.6729 16.8435 12.7725 16.8082 12.9305C16.7743 13.0823 16.865 13.2342 17.0147 13.2764C17.1628 13.3137 17.3089 13.3585 17.4525 13.4104C17.9221 13.5794 18.4394 13.5571 18.8927 13.3485C19.2213 13.2038 19.577 13.1311 19.9359 13.1354C19.9426 13.1354 19.9493 13.1354 19.9562 13.1347C20.336 13.1234 20.7138 13.1942 21.0638 13.3421C21.5258 13.547 22.0506 13.5594 22.5218 13.3764C22.5814 13.3526 22.6419 13.3302 22.7015 13.3099C22.9836 13.2145 23.2896 13.3657 23.3851 13.6478C23.404 13.7037 23.4136 13.7624 23.4135 13.8214V14.3649C23.2432 14.2689 23.0509 14.2186 22.8554 14.2187H16.1956V9.27913C16.1967 8.95048 16.0436 8.64032 15.7822 8.44119C15.5261 8.24271 15.1919 8.17569 14.8791 8.26008C14.7355 8.29853 14.5949 8.34728 14.4583 8.40589C14.1799 8.52744 13.8648 8.53472 13.581 8.42619C13.4262 8.36508 13.2675 8.31422 13.106 8.274C12.9488 8.23478 12.7896 8.33034 12.7504 8.48749C12.7112 8.64463 12.8067 8.80385 12.9639 8.84307C13.1003 8.87699 13.2343 8.91988 13.365 8.97151C13.7929 9.13651 14.2686 9.12681 14.6894 8.94453C14.8 8.89703 14.9139 8.85755 15.0302 8.82644C15.167 8.78976 15.3131 8.81932 15.4248 8.90634C15.5413 8.99487 15.6094 9.13289 15.6091 9.27913V9.76734C15.4387 9.6714 15.2465 9.62105 15.051 9.62118H12.293V6.16781C12.2923 5.53624 11.7805 5.02441 11.149 5.02368H0.293176C0.131287 5.02368 0 5.15493 0 5.31681V23.7067C4.31014e-05 23.8687 0.131287 23.9999 0.293176 23.9999H23.7068C23.8687 23.9999 24 23.8686 24 23.7067V13.8213C24.002 13.4573 23.826 13.1153 23.5287 12.9053ZM23.4135 15.3628V18.8161H20.0976V14.8049H22.8557C23.1637 14.8053 23.4132 15.0548 23.4135 15.3628ZM15.6091 10.7653V14.2186H13.456C13.294 14.2207 13.1645 14.3537 13.1666 14.5156C13.1687 14.6745 13.2971 14.8028 13.456 14.8049H19.5115V18.8161H12.2931V14.5118C12.2931 14.3499 12.1618 14.2186 12 14.2186H8.39086V10.2075H15.0512C15.3592 10.2078 15.6087 10.4573 15.6091 10.7653ZM8.09768 18.8161H4.48858V14.8049H11.7068V18.8161H8.09768ZM0.586309 10.2074H7.80455V14.2186H0.586309V10.2074ZM11.7068 6.16781V9.62118H4.48858V5.60999H11.149C11.4569 5.61034 11.7064 5.85989 11.7068 6.16781ZM0.586309 5.60973H3.90227V9.62092H0.586309V5.60973ZM0.586309 19.4021H2.77802C2.93991 19.4021 3.07119 19.2709 3.07124 19.109C3.07128 18.9471 2.94008 18.8158 2.77815 18.8158C2.7781 18.8158 2.77806 18.8158 2.77802 18.8158H0.586309V14.8049H3.90227V19.1092C3.90232 19.2711 4.03356 19.4023 4.19545 19.4023H15.6091V23.4135H8.39086V20.5904C8.39081 20.4285 8.25953 20.2973 8.09764 20.2973C7.93579 20.2973 7.80459 20.4285 7.80455 20.5904V23.4135H0.586309V19.4021ZM23.4135 23.4133H16.1956V19.4024H23.4136L23.4135 23.4133Z" fill="black"/>
<path d="M10.2572 6.74518C10.2644 6.76299 10.2735 6.77997 10.2843 6.79591C10.2952 6.81186 10.3074 6.82682 10.3209 6.84061C10.3345 6.85436 10.3495 6.86664 10.3657 6.87725C10.3817 6.88789 10.3987 6.89694 10.4164 6.90436C10.4342 6.91151 10.4526 6.91716 10.4714 6.92125C10.5674 6.93931 10.6663 6.90919 10.7359 6.84065C10.7494 6.82708 10.7615 6.81208 10.7718 6.79596C10.7828 6.78018 10.7919 6.76316 10.7989 6.74523C10.8063 6.72777 10.8119 6.70963 10.8158 6.69105C10.8196 6.67196 10.8216 6.65256 10.8217 6.63312C10.8213 6.47102 10.6896 6.33994 10.5275 6.34033C10.5087 6.34038 10.4899 6.34223 10.4714 6.34589C10.4526 6.3496 10.4342 6.35525 10.4165 6.36275C10.3986 6.36986 10.3816 6.37899 10.3657 6.3899C10.3494 6.40024 10.3343 6.41253 10.321 6.42654C10.2664 6.48149 10.2356 6.55571 10.2353 6.63316C10.235 6.65265 10.237 6.67208 10.2412 6.69109C10.2446 6.70954 10.25 6.72769 10.2572 6.74518Z" fill="black"/>
<path d="M10.3656 8.08412C10.3817 8.0945 10.3987 8.10334 10.4164 8.11054C10.4341 8.11799 10.4525 8.12364 10.4713 8.12739C10.6296 8.15928 10.7838 8.05683 10.8157 7.89848C10.8273 7.84124 10.8214 7.78185 10.7989 7.72793C10.7916 7.71013 10.7825 7.69314 10.7718 7.6772C10.7613 7.6612 10.7492 7.64625 10.7359 7.6325C10.6663 7.5638 10.5673 7.53388 10.4713 7.55259C10.4525 7.55634 10.4341 7.56199 10.4164 7.56944C10.3985 7.57655 10.3815 7.58569 10.3656 7.5966C10.3495 7.60694 10.3345 7.61897 10.3209 7.6325C10.3075 7.64642 10.2953 7.66138 10.2843 7.6772C10.2738 7.69332 10.2647 7.71025 10.2571 7.72793C10.25 7.74568 10.2446 7.76409 10.241 7.78288C10.2369 7.80167 10.2349 7.82085 10.2351 7.84008C10.2356 7.91774 10.2664 7.99214 10.3209 8.04748C10.3347 8.06106 10.3496 8.0733 10.3656 8.08412Z" fill="black"/>
<path d="M1.73968 11.7038C1.578 11.7036 1.44676 11.8344 1.44654 11.9961V11.9962C1.44637 12.0156 1.4481 12.035 1.45163 12.0541C1.45581 12.0726 1.46141 12.0907 1.46848 12.1083C1.47594 12.1262 1.48499 12.1434 1.49564 12.1596C1.50641 12.1754 1.5187 12.1901 1.53227 12.2035C1.64662 12.3178 1.83196 12.3178 1.94631 12.2035C1.96014 12.1903 1.97243 12.1756 1.98299 12.1596C1.99389 12.1435 2.00294 12.1263 2.0101 12.1083C2.01751 12.0908 2.02316 12.0726 2.02699 12.0541C2.03078 12.035 2.03272 12.0156 2.03281 11.9962C2.03182 11.8348 1.90105 11.7043 1.73968 11.7037V11.7038Z" fill="black"/>
<path d="M1.73979 12.91C1.57812 12.9098 1.44687 13.0407 1.44666 13.2023V13.2032C1.44648 13.281 1.47734 13.3556 1.53238 13.4106C1.64699 13.5249 1.83254 13.5246 1.94681 13.4099C2.06107 13.2953 2.06077 13.1098 1.94612 12.9955C1.89133 12.9409 1.81716 12.9102 1.73979 12.91Z" fill="black"/>
<path d="M10.6976 16.6477C10.6199 16.6482 10.5455 16.6789 10.4902 16.7334C10.4768 16.7474 10.4646 16.7623 10.4536 16.7782C10.4433 16.7943 10.4345 16.8113 10.4272 16.8289C10.4197 16.8466 10.4141 16.865 10.4103 16.8839C10.4065 16.9027 10.4045 16.9218 10.4044 16.941C10.4045 16.9602 10.4065 16.9794 10.4103 16.9982C10.4141 17.017 10.4197 17.0354 10.4272 17.053C10.4344 17.0707 10.4432 17.0877 10.4536 17.1038C10.4644 17.1198 10.4767 17.1347 10.4902 17.1485C10.6046 17.2632 10.7903 17.2633 10.905 17.1489C11.0197 17.0345 11.0199 16.8488 10.9055 16.7341C10.8504 16.6789 10.7756 16.6479 10.6976 16.6479V16.6477Z" fill="black"/>
<path d="M10.6976 15.4414C10.6198 15.4415 10.5453 15.4723 10.4902 15.5271C10.4768 15.5408 10.4646 15.5555 10.4536 15.5711C10.4432 15.5873 10.4344 15.6045 10.4272 15.6224C10.4198 15.6399 10.4142 15.658 10.4103 15.6766C10.4065 15.6957 10.4045 15.7151 10.4044 15.7345C10.405 15.8961 10.5359 16.027 10.6976 16.0276C10.7168 16.0275 10.7359 16.0255 10.7547 16.0217C10.7736 16.0181 10.792 16.0124 10.8097 16.0049C10.8274 15.9973 10.8443 15.9882 10.8604 15.9778C10.8765 15.9669 10.8914 15.9547 10.9051 15.9411C10.9187 15.9273 10.9309 15.9124 10.9418 15.8964C10.9523 15.8804 10.9611 15.8634 10.9681 15.8457C10.9755 15.8282 10.9812 15.81 10.985 15.7914C10.9888 15.7726 10.9908 15.7535 10.9909 15.7342C10.9911 15.5726 10.8603 15.4413 10.6986 15.4411C10.6983 15.4411 10.698 15.4411 10.6977 15.4411L10.6976 15.4414Z" fill="black"/>
<path d="M22.1128 15.8459C22.1199 15.864 22.129 15.8812 22.1399 15.8972C22.1504 15.9132 22.1627 15.9279 22.1765 15.9411C22.19 15.9548 22.2047 15.967 22.2205 15.9778C22.2367 15.9884 22.2539 15.9975 22.2718 16.0049C22.2894 16.012 22.3075 16.0176 22.326 16.0218C22.3451 16.0253 22.3645 16.027 22.3839 16.0269C22.5453 16.0266 22.6761 15.8958 22.6764 15.7344C22.6765 15.715 22.6748 15.6956 22.6713 15.6765C22.6674 15.658 22.6618 15.6398 22.6544 15.6223C22.647 15.6044 22.6379 15.5872 22.6273 15.571C22.6165 15.5552 22.6042 15.5405 22.5906 15.527C22.5773 15.5132 22.5626 15.5009 22.5467 15.4904C22.5306 15.4795 22.5134 15.4704 22.4954 15.4633C22.4779 15.4559 22.4597 15.4502 22.4411 15.4464C22.4031 15.4391 22.3641 15.4391 22.3261 15.4464C22.3075 15.4502 22.2893 15.4559 22.2718 15.4633C22.2538 15.4703 22.2366 15.4794 22.2206 15.4904C22.189 15.5121 22.1617 15.5394 22.14 15.571C22.1291 15.587 22.12 15.6042 22.1128 15.6223C22.1054 15.6398 22.0997 15.658 22.0959 15.6766C22.0881 15.7146 22.0881 15.7537 22.0959 15.7917C22.0997 15.8103 22.1054 15.8285 22.1128 15.8459Z" fill="black"/>
<path d="M17.7061 22.1508C17.6991 22.1329 17.69 22.1159 17.679 22.1001C17.6686 22.084 17.6566 22.069 17.6431 22.0554C17.5284 21.9411 17.3429 21.9411 17.2282 22.0554C17.2147 22.0691 17.2024 22.0841 17.1916 22.1001C17.1811 22.116 17.1722 22.1331 17.1652 22.1508C17.1578 22.1683 17.1522 22.1865 17.1483 22.205C17.1405 22.243 17.1405 22.2821 17.1483 22.32C17.1523 22.3388 17.1579 22.3572 17.1652 22.375C17.1725 22.3927 17.1814 22.4096 17.1916 22.4258C17.2024 22.4415 17.2147 22.4562 17.2282 22.4697C17.3417 22.5842 17.5266 22.5851 17.6411 22.4716L17.6431 22.4697C17.6566 22.4564 17.6687 22.4417 17.679 22.4258C17.6897 22.4098 17.6987 22.3928 17.7061 22.375C17.7134 22.3572 17.719 22.3388 17.7229 22.32C17.7308 22.2821 17.7308 22.243 17.7229 22.205C17.7191 22.1865 17.7135 22.1683 17.7061 22.1508Z" fill="black"/>
<path d="M9.4502 15.4465C9.43162 15.4503 9.41348 15.4559 9.39602 15.4634C9.37822 15.4706 9.36119 15.4797 9.34529 15.4905C9.32913 15.5011 9.31413 15.5133 9.30059 15.5271C9.28702 15.5406 9.27473 15.5553 9.26396 15.5711C9.25335 15.5873 9.24426 15.6045 9.2368 15.6224C9.22969 15.6399 9.2243 15.6581 9.22073 15.6766C9.21288 15.7146 9.21288 15.7537 9.22073 15.7917C9.2243 15.8103 9.22969 15.8284 9.2368 15.8459C9.24426 15.8638 9.25335 15.881 9.26396 15.8972C9.27473 15.913 9.28702 15.9277 9.30059 15.9411C9.32788 15.9684 9.36029 15.9901 9.39593 16.0049C9.41339 16.0123 9.43154 16.018 9.45011 16.0218C9.46921 16.0256 9.4886 16.0276 9.50804 16.0277C9.58562 16.0275 9.65997 15.9965 9.71467 15.9414C9.72846 15.9282 9.74075 15.9135 9.75131 15.8975C9.76221 15.8815 9.7713 15.8643 9.77846 15.8462C9.78583 15.8287 9.79148 15.8106 9.79531 15.792C9.79915 15.773 9.80109 15.7536 9.80122 15.7341C9.801 15.6565 9.77001 15.5822 9.71497 15.5275C9.64549 15.4583 9.5464 15.428 9.4502 15.4465Z" fill="black"/>
<path d="M1.79037 21.0458C1.78321 21.0277 1.77412 21.0105 1.76321 20.9945C1.75265 20.9785 1.74037 20.9638 1.72658 20.9505C1.6571 20.8816 1.55809 20.8514 1.46202 20.8699C1.44344 20.8737 1.4253 20.8794 1.40784 20.8868C1.39004 20.894 1.37301 20.9031 1.35711 20.9139C1.34095 20.9245 1.32599 20.9368 1.31241 20.9505C1.19811 21.0649 1.19811 21.2502 1.31241 21.3646C1.32595 21.3783 1.34095 21.3906 1.35711 21.4012C1.37301 21.412 1.39004 21.4211 1.40784 21.4283C1.4253 21.4358 1.44344 21.4414 1.46202 21.4452C1.48107 21.449 1.50046 21.4509 1.5199 21.4511C1.53908 21.4509 1.55826 21.449 1.5771 21.4452C1.59589 21.4413 1.6143 21.4357 1.63205 21.4283C1.64973 21.4208 1.66666 21.4117 1.68278 21.4012C1.69873 21.3906 1.71343 21.3783 1.7267 21.3646C1.7405 21.3513 1.75278 21.3366 1.76334 21.3206C1.77425 21.3046 1.78334 21.2874 1.79049 21.2693C1.79786 21.2518 1.80351 21.2337 1.80735 21.2151C1.81519 21.1772 1.81519 21.138 1.80735 21.1C1.80342 21.0814 1.79778 21.0633 1.79037 21.0458Z" fill="black"/>
<path d="M1.79038 22.2519C1.7831 22.2341 1.77401 22.2171 1.76323 22.2012C1.74202 22.1692 1.71465 22.1418 1.68267 22.1206C1.66673 22.1098 1.64974 22.1007 1.63194 22.0934C1.61419 22.0861 1.59578 22.0805 1.57699 22.0766C1.53897 22.0692 1.49992 22.0692 1.46191 22.0766C1.44333 22.0804 1.42519 22.086 1.40773 22.0934C1.3898 22.1004 1.37277 22.1095 1.357 22.1206C1.34088 22.1309 1.32588 22.143 1.3123 22.1564C1.29873 22.1701 1.28644 22.1851 1.27567 22.2012C1.26519 22.2173 1.2561 22.2342 1.24851 22.2519C1.24149 22.2698 1.23584 22.2882 1.23166 22.3069C1.22817 22.3257 1.22644 22.3449 1.22657 22.364C1.2264 22.3832 1.22813 22.4023 1.23166 22.4212C1.23575 22.44 1.24136 22.4584 1.24851 22.4762C1.25597 22.4939 1.26502 22.5109 1.27567 22.5269C1.28627 22.5431 1.29855 22.5581 1.3123 22.5716C1.32605 22.5852 1.34101 22.5975 1.357 22.6083C1.3729 22.6191 1.38993 22.6282 1.40773 22.6354C1.42523 22.6426 1.44337 22.648 1.46191 22.6515C1.48092 22.6556 1.50035 22.6576 1.51979 22.6574C1.59729 22.6571 1.67155 22.6263 1.72646 22.5716C1.74043 22.5583 1.75276 22.5433 1.7631 22.5269C1.77401 22.5111 1.7831 22.4941 1.79025 22.4762C1.79771 22.4585 1.80336 22.4401 1.80711 22.4212C1.81094 22.4024 1.81293 22.3832 1.81301 22.364C1.8128 22.3255 1.80508 22.2874 1.7903 22.2519H1.79038Z" fill="black"/>
<path d="M2.65216 22.0768C2.63332 22.0805 2.61487 22.0861 2.5972 22.0936C2.5794 22.1009 2.56242 22.11 2.54647 22.1208C2.53048 22.1313 2.51553 22.1433 2.50178 22.1567C2.38743 22.2713 2.38743 22.4568 2.50178 22.5715C2.51566 22.5849 2.53061 22.5971 2.54647 22.6082C2.56259 22.6184 2.57953 22.6272 2.5972 22.6345C2.61487 22.642 2.63328 22.6477 2.65216 22.6514C2.67099 22.6551 2.69009 22.6571 2.70927 22.6572C2.87111 22.6574 3.00244 22.5263 3.00262 22.3645C3.00279 22.2026 2.87172 22.0713 2.70987 22.0711C2.69052 22.0711 2.67117 22.073 2.65216 22.0768Z" fill="black"/>
<path d="M22.4967 2.43005C22.335 2.43027 22.2041 2.56151 22.2043 2.72319C22.2046 2.88486 22.3358 3.01576 22.4975 3.0155C22.6592 3.01528 22.79 2.88404 22.7898 2.72237C22.7897 2.64487 22.7588 2.57056 22.7041 2.51578C22.6488 2.46126 22.5743 2.43048 22.4967 2.43005Z" fill="black"/>
<path d="M22.4967 1.22375C22.335 1.22397 22.2041 1.35521 22.2043 1.51689C22.2046 1.67856 22.3358 1.80946 22.4975 1.8092C22.6592 1.80899 22.79 1.67774 22.7898 1.51607C22.7897 1.43857 22.7588 1.36427 22.7041 1.30948C22.649 1.2547 22.5744 1.22384 22.4967 1.22375Z" fill="black"/>
<path d="M21.5778 1.40477C21.5706 1.38671 21.5615 1.36951 21.5506 1.35348C21.5401 1.33749 21.5278 1.32275 21.514 1.30947C21.4009 1.19512 21.2166 1.19409 21.1023 1.3071C21.1015 1.30788 21.1007 1.30865 21.0999 1.30947C21.0863 1.32292 21.074 1.33766 21.0632 1.35348C21.0526 1.36969 21.0435 1.38688 21.0361 1.40477C21.0289 1.42227 21.0236 1.44046 21.02 1.45899C21.0122 1.49696 21.0122 1.5361 21.02 1.57407C21.0237 1.59282 21.0291 1.61123 21.0361 1.62903C21.0436 1.6467 21.0527 1.66368 21.0632 1.67976C21.074 1.69558 21.0863 1.71027 21.0999 1.72376C21.1548 1.7788 21.2295 1.80966 21.3073 1.80949C21.3265 1.80962 21.3456 1.80794 21.3644 1.80441C21.3832 1.80048 21.4016 1.79484 21.4194 1.78755C21.4372 1.78027 21.4542 1.77122 21.4701 1.76044C21.5016 1.73868 21.529 1.71135 21.5507 1.67984C21.5615 1.66394 21.5706 1.64691 21.5778 1.62911C21.5851 1.61136 21.5908 1.59295 21.5947 1.57416C21.6025 1.53619 21.6025 1.49705 21.5947 1.45908C21.5909 1.4405 21.5852 1.42227 21.5778 1.40477Z" fill="black"/>
<path d="M22.8557 6.10352e-05H16.7532C16.1216 0.00079376 15.6098 0.512623 15.6091 1.14419V4.03992C15.6098 4.67148 16.1216 5.18331 16.7532 5.184H22.8558C23.4873 5.18331 23.9992 4.67148 23.9999 4.03992V1.14423C23.9992 0.512623 23.4873 0.00079376 22.8557 6.10352e-05ZM23.4138 4.03974C23.4136 4.34788 23.1639 4.59761 22.8557 4.59782H16.7532C16.4451 4.59761 16.1954 4.34788 16.1951 4.03974V1.14423C16.1955 0.836229 16.4452 0.586628 16.7532 0.586413H22.8558C23.1639 0.586628 23.4136 0.836358 23.4139 1.14449V4.03974H23.4138Z" fill="black"/>
</g>
<defs>
<clipPath id="clip0_307_9248">
<rect width="24" height="24" fill="white"/>
</clipPath>
</defs>
</svg>
