<svg width="20" height="24" viewBox="0 0 20 24" fill="none" xmlns="http://www.w3.org/2000/svg">
<path d="M12.5557 17.4073L12.1529 17.3322C12.1684 17.2971 12.1836 17.262 12.1987 17.2267H12.5418C12.5468 17.2863 12.5515 17.3466 12.5557 17.4073Z" fill="black" stroke="black"/>
<path d="M9.22526 7.64346C10.5176 7.64346 11.5883 6.60961 11.5883 5.28038C11.5883 3.95115 10.5176 2.95422 9.22526 2.95422C7.93295 2.95422 6.86218 3.98807 6.86218 5.28038C6.86218 6.57269 7.93295 7.64346 9.22526 7.64346ZM9.22526 3.69269C10.1114 3.69269 10.8499 4.43115 10.8499 5.3173C10.8499 6.20345 10.1114 6.94192 9.22526 6.94192C8.33911 6.94192 7.60064 6.20345 7.60064 5.3173C7.60064 4.43115 8.33911 3.69269 9.22526 3.69269Z" fill="black"/>
<path d="M18.5299 0.480469C17.7176 0.480469 17.053 1.14508 17.053 1.95739C17.053 2.7697 17.7176 3.43431 18.5299 3.43431C19.3422 3.43431 20.0068 2.7697 20.0068 1.95739C20.0068 1.14508 19.3422 0.480469 18.5299 0.480469ZM18.5299 2.69585C18.1237 2.69585 17.7914 2.36355 17.7914 1.95739C17.7914 1.55124 18.1237 1.21893 18.5299 1.21893C18.9361 1.21893 19.2684 1.55124 19.2684 1.95739C19.2684 2.36355 18.9361 2.69585 18.5299 2.69585Z" fill="black"/>
</svg>
