<svg width="24" height="24" viewBox="0 0 24 24" fill="none" xmlns="http://www.w3.org/2000/svg">
<path d="M4.40003 20H14H23.6C23.84 20 24 19.84 24 19.6V12.4V5.20003V0.399984C24 0.159984 23.84 0 23.6 0H16H11.6H4.39998C4.15998 0 4 0.159984 4 0.399984V9.99998V13.2V18V19.6C4 19.84 4.16003 20 4.40003 20ZM4.80002 13.6H8.8C8.59998 15.72 6.91998 17.4 4.80002 17.6V13.6ZM4.80002 0.800016H11.2V3.20002H10.8C10.56 3.20002 10.4 3.36 10.4 3.6C10.4 3.84 10.56 3.99998 10.8 3.99998H12.4C12.64 3.99998 12.8 3.84 12.8 3.6C12.8 3.36 12.64 3.20002 12.4 3.20002H12V0.800016H15.6V5.20003C15.6 5.44003 15.76 5.60002 16 5.60002H17.6V6C17.6 6.24 17.76 6.39998 18 6.39998C18.24 6.39998 18.4 6.24 18.4 6V4.40002C18.4 4.16002 18.24 4.00003 18 4.00003C17.76 4.00003 17.6 4.16002 17.6 4.40002V4.8H16.4V0.800016H23.2V4.8H21.6V4.40002C21.6 4.16002 21.44 4.00003 21.2 4.00003C20.96 4.00003 20.8 4.16002 20.8 4.40002V6C20.8 6.24 20.96 6.39998 21.2 6.39998C21.44 6.39998 21.6 6.24 21.6 6V5.60002H23.2V12H20.8V11.6C20.8 11.36 20.64 11.2 20.4 11.2C20.16 11.2 20 11.36 20 11.6V13.2C20 13.44 20.16 13.6 20.4 13.6C20.64 13.6 20.8 13.44 20.8 13.2V12.8H23.2V19.2H14.4V12.8H16.8V13.2C16.8 13.44 16.96 13.6 17.2 13.6C17.44 13.6 17.6 13.44 17.6 13.2V11.6C17.6 11.36 17.44 11.2 17.2 11.2C16.96 11.2 16.8 11.36 16.8 11.6V12H14C13.76 12 13.6 12.16 13.6 12.4V19.2H4.80002V18.3849C7.49181 18.1819 9.60002 15.9454 9.60002 13.2C9.60002 12.96 9.44003 12.8 9.20003 12.8H4.80002V10.4H11.6C11.84 10.4 12 10.24 12 10V7.2H12.4C12.64 7.2 12.8 7.04002 12.8 6.80002C12.8 6.56002 12.64 6.40003 12.4 6.40003H10.8C10.56 6.40003 10.4 6.56002 10.4 6.80002C10.4 7.04002 10.56 7.2 10.8 7.2H11.2V9.6H4.80002V0.800016Z" fill="black"/>
<path d="M3.08 19.88C3.23999 19.72 3.23999 19.48 3.08 19.32C2.92002 19.16 2.68002 19.16 2.51999 19.32L2 19.84V1.35998L2.51999 1.88002C2.6 1.96003 2.67997 2.00002 2.79997 2.00002C2.91997 2.00002 2.99999 1.96003 3.07996 1.88002C3.23994 1.72003 3.23994 1.48003 3.07996 1.32L1.94844 0.188437C1.88305 0.0708281 1.7593 0 1.59997 0C1.44064 0 1.31694 0.0708281 1.2515 0.188437L0.119988 1.32C-0.0399961 1.47998 -0.0399961 1.71998 0.119988 1.88002C0.279973 2.04005 0.519973 2.04 0.680004 1.88002L1.19999 1.35998V19.84L0.680004 19.32C0.52002 19.16 0.28002 19.16 0.119988 19.32C-0.0399961 19.48 -0.0399961 19.72 0.119988 19.88L1.25155 21.0116C1.31694 21.1292 1.44064 21.2 1.60002 21.2C1.75935 21.2 1.88305 21.1292 1.94844 21.0116L3.08 19.88Z" fill="black"/>
<path d="M23.9999 22.4003C23.9999 22.4001 23.9999 22.3999 23.9999 22.3996C23.9998 22.2404 23.9291 22.1169 23.8115 22.0515L22.6799 20.9199C22.52 20.7599 22.28 20.7599 22.1199 20.9199C21.9599 21.0799 21.9599 21.3199 22.1199 21.4799L22.6399 21.9999H4.15996L4.67994 21.48C4.83993 21.32 4.83993 21.08 4.67994 20.92C4.51996 20.76 4.27996 20.76 4.11993 20.92L2.98836 22.0515C2.87075 22.1169 2.79993 22.2406 2.79993 22.4C2.79993 22.5594 2.87075 22.683 2.98836 22.7485L4.11993 23.88C4.19994 23.96 4.27991 24 4.39991 24C4.51991 24 4.59993 23.96 4.6799 23.88C4.83988 23.72 4.83988 23.48 4.6799 23.32L4.15996 22.8H22.64L22.12 23.32C21.96 23.4799 21.96 23.7199 22.12 23.88C22.2 23.96 22.28 24 22.4 24C22.52 24 22.6 23.96 22.6799 23.88L23.8115 22.7484C23.929 22.6831 23.9998 22.5595 23.9999 22.4003Z" fill="black"/>
</svg>
