<svg width="24" height="24" viewBox="0 0 24 24" fill="none" xmlns="http://www.w3.org/2000/svg">
<mask id="mask0_289_982" style="mask-type:alpha" maskUnits="userSpaceOnUse" x="0" y="0" width="24" height="24">
<rect width="24" height="24" fill="#D9D9D9"/>
</mask>
<g mask="url(#mask0_289_982)">
<path d="M13.725 21L7 14V12H10.5C11.3833 12 12.1458 11.7125 12.7875 11.1375C13.4292 10.5625 13.8167 9.85 13.95 9H6V7H13.65C13.3667 6.41667 12.9458 5.9375 12.3875 5.5625C11.8292 5.1875 11.2 5 10.5 5H6V3H18V5H14.75C14.9833 5.28333 15.1917 5.59167 15.375 5.925C15.5583 6.25833 15.7 6.61667 15.8 7H18V9H15.975C15.8417 10.4167 15.2583 11.6042 14.225 12.5625C13.1917 13.5208 11.95 14 10.5 14H9.775L16.5 21H13.725Z" fill="#1C1B1F"/>
</g>
</svg>
